<svg xmlns="http://www.w3.org/2000/svg" viewBox="0 0 1000 750" preserveAspectRatio="xMidYMid slice" role="img" aria-label="Map: 1450 NW Olympic Drive, Grain Valley">
<path class="map-green" d="M908.8,700.0L908.5,708.2L924.8,708.8L925.1,700.6L908.8,700.0ZM753.0,563.1L927.7,570.2L927.9,594.0L954.7,595.1L953.8,653.9L742.8,732.5L744.0,712.4L744.6,703.4L745.4,689.9L753.0,563.1ZM786.9,68.1L784.4,46.9L834.5,20.7L833.6,4.4L846.8,2.2L846.8,-5.9L840.1,-8.4L829.4,-23.1L820.1,-17.3L813.1,-22.8L793.4,-52.5L762.6,-93.4L757.8,-90.1L753.6,-94.9L746.4,-92.9L743.4,-98.6L747.5,-102.3L748.5,-108.0L745.6,-115.0L741.3,-124.1L710.4,-146.7L700.8,-152.2L679.2,-169.7L711.2,-169.7L727.6,-170.6L727.2,-150.3L740.0,-144.0L748.3,-143.8L758.5,-139.6L759.0,-131.6L779.7,-130.9L776.2,-120.3L776.4,-106.2L781.7,-98.6L805.0,-92.9L805.0,-75.4L828.0,-59.3L829.7,-55.8L830.5,-49.9L835.6,-42.8L836.7,-33.0L846.0,-27.7L853.7,-31.8L854.5,-57.7L859.1,-57.7L858.4,-32.5L908.9,-31.3L945.9,-30.3L953.5,-30.1L953.4,-25.9L967.0,-25.7L970.8,-16.0L978.6,-8.4L992.2,-6.6L1004.6,-11.6L1009.6,-26.3L1022.5,-28.0L1031.7,-17.6L1033.9,-14.9L1033.5,39.4L1030.0,39.4L1015.5,35.0L1009.7,25.1L996.6,24.2L983.4,23.4L970.2,26.7L962.0,24.4L952.9,24.7L940.3,28.6L928.6,29.8L917.3,29.3L903.8,24.7L893.8,24.5L882.1,21.7L871.1,21.7L870.9,30.3L855.9,30.2L851.6,36.6L836.6,37.7L786.9,68.1ZM547.2,-6.7L599.0,-32.6L601.8,-26.3L549.4,0.2L544.5,-1.1L533.0,7.3L534.0,13.1L530.5,16.0L508.9,41.7L493.5,78.4L492.4,109.2L489.6,109.2L486.3,109.0L486.5,79.0L448.0,90.1L446.1,88.8L440.3,84.9L419.0,83.4L408.6,77.5L392.4,80.7L354.1,102.1L348.9,110.5L345.0,108.0L345.3,98.0L339.1,90.5L328.8,81.9L327.9,75.1L322.4,72.7L323.9,66.0L333.5,70.5L337.4,77.6L356.4,87.8L363.2,85.9L362.0,80.8L356.4,77.5L352.1,72.2L361.0,69.7L369.8,76.5L410.8,67.7L418.7,69.4L437.3,71.6L451.8,67.7L457.3,55.0L454.6,45.9L313.4,41.2L313.6,37.7L375.5,38.3L376.4,27.0L367.9,18.8L349.9,19.8L347.8,13.9L346.5,9.8L340.6,10.8L337.0,16.2L330.3,19.1L324.4,21.1L319.3,18.8L313.8,18.6L314.8,0.7L339.1,2.9L341.6,-5.4L346.2,-11.9L350.0,-11.8L355.6,-4.0L358.0,4.8L367.4,-0.5L373.3,2.1L378.5,-2.2L378.9,-9.4L374.8,-10.1L365.9,-7.0L359.5,-6.7L359.3,-12.4L363.4,-14.3L369.6,-15.6L368.1,-20.6L365.2,-30.1L360.5,-33.0L360.7,-40.1L366.4,-44.3L369.6,-69.8L368.3,-121.7L372.0,-129.7L372.8,-165.8L374.5,-169.5L377.0,-169.3L377.7,-142.5L430.2,-139.6L427.8,-130.7L422.2,-127.0L411.4,-121.4L403.7,-120.2L397.1,-111.3L402.7,-107.9L414.8,-108.3L419.5,-107.4L425.9,-101.8L430.8,-96.4L429.5,-49.5L431.3,-25.9L430.2,-2.0L416.2,-2.2L399.8,-5.4L383.8,-10.1L384.1,6.8L406.9,28.0L421.6,33.4L434.0,35.1L439.8,35.8L450.7,37.2L458.8,31.4L464.9,22.3L487.9,25.5L491.2,-18.2L518.7,-5.0L533.7,-3.0L547.2,-6.7ZM366.4,117.9L368.8,109.4L384.1,105.3L401.8,100.6L446.1,88.8L440.3,84.9L419.0,83.4L408.6,77.5L392.4,80.7L354.1,102.1L348.9,110.5L345.0,108.0L345.3,98.0L339.1,90.5L328.8,81.9L327.9,75.1L322.4,72.7L323.9,66.0L333.5,70.5L337.4,77.6L356.4,87.8L363.2,85.9L362.0,80.8L356.4,77.5L352.1,72.2L361.0,69.7L369.8,76.5L410.8,67.7L418.7,69.4L437.3,71.6L451.8,67.7L457.3,55.0L454.6,45.9L313.4,41.2L310.9,112.6L312.4,114.7L366.4,117.9ZM436.2,-7.4L436.2,-23.6L435.5,-32.0L453.4,-31.2L461.6,-39.3L471.1,-41.8L476.0,-39.1L478.5,-29.5L483.1,-30.5L484.6,-36.4L487.8,-35.7L487.9,-28.3L488.3,-19.0L488.5,-12.9L483.2,-6.2L457.1,-6.5L454.7,-1.1L451.3,0.7L449.0,-1.0L447.1,-5.7L436.2,-7.4ZM541.2,184.3L558.0,181.0L572.8,167.5L584.0,147.2L601.6,113.2L616.4,110.8L637.9,99.8L650.2,94.0L653.3,103.4L645.3,110.5L648.7,118.6L626.5,138.3L610.3,147.3L594.5,166.5L593.2,186.0L541.2,184.3ZM645.3,110.5L653.3,103.4L650.2,94.0L651.9,93.2L655.6,101.9L660.2,108.4L648.7,118.6L645.3,110.5ZM659.8,97.2L662.5,102.3L665.9,106.5L669.5,109.7L675.8,113.8L677.7,108.7L667.1,101.8L663.4,95.6L659.8,97.2ZM663.4,95.6L667.1,101.8L677.7,108.7L681.6,101.8L693.2,96.1L698.4,98.4L703.7,90.6L708.0,88.5L713.0,86.4L707.1,77.4L663.4,95.6ZM735.5,126.7L739.5,134.7L752.3,137.3L755.9,124.5L752.6,112.1L747.4,122.4L745.9,115.0L740.4,117.2L735.5,126.7ZM729.9,137.6L741.5,142.1L750.5,144.0L752.3,137.3L739.5,134.7L735.5,126.7L729.9,137.6ZM-821.1,311.4L-819.3,307.4L-817.2,305.3L-814.2,303.8L-811.5,303.3L-808.6,303.5L-804.4,304.0L-792.5,305.4L-777.4,306.0L-767.7,305.8L-757.1,304.2L-709.5,292.5L-692.5,289.9L-678.7,288.9L-658.8,289.3L-640.9,291.2L-623.1,293.8L-542.7,305.4L-504.0,311.2L-283.6,345.1L-155.8,364.8L-66.7,378.8L35.1,394.4L152.3,412.3L299.3,435.4L409.1,452.5L553.9,474.4L674.4,492.8L767.5,507.2L840.2,518.5L933.5,533.0L1034.5,549.8L1058.3,554.6L1080.9,560.9L1096.0,566.1L1151.6,588.1L1159.9,590.3L1189.6,596.0L1191.7,596.2L1193.2,597.3L1192.9,598.7L1192.8,599.6L1192.9,600.3L1193.3,601.2L1194.3,603.5L1194.8,605.8L1192.8,644.7L1191.5,647.2L1189.9,649.6L1188.2,650.2L1190.0,599.3L1152.6,592.2L1092.9,566.8L1022.2,558.2L769.6,520.5L769.2,521.9L666.0,505.4L664.4,499.7L595.8,488.6L583.5,489.2L571.8,486.8L563.7,482.7L460.8,463.6L418.4,455.8L413.3,458.8L338.8,448.0L328.3,443.4L210.9,425.0L199.7,423.2L197.6,432.8L94.0,416.7L61.3,411.6L59.0,407.8L-23.1,392.2L-36.3,389.4L-49.2,386.6L-51.7,389.5L-63.4,387.5L-70.3,387.8L-109.1,384.1L-174.1,374.2L-190.9,366.1L-225.3,361.3L-229.7,364.0L-232.0,364.6L-234.2,363.6L-236.1,361.3L-238.8,359.1L-241.6,359.9L-243.6,362.0L-245.7,365.1L-381.3,344.9L-481.5,329.7L-563.8,316.2L-563.6,310.6L-649.4,298.2L-678.3,296.4L-698.3,298.0L-740.9,310.0L-742.5,304.6L-758.7,307.6L-773.9,308.8L-789.8,308.8L-815.2,307.6L-821.7,324.2L-836.5,354.0L-837.9,352.3L-838.4,350.9L-838.8,348.4L-838.4,345.8L-833.6,335.6L-830.1,330.2L-825.2,320.7L-821.1,311.4ZM-132.2,392.6L-112.5,390.7L-77.3,397.5L-71.8,396.0L-57.8,398.0L-92.9,477.3L-93.4,494.0L-91.7,501.0L-91.0,514.5L-80.5,510.8L-78.9,475.1L-43.9,396.0L-36.3,389.4L-23.1,392.2L59.0,407.8L61.3,411.6L54.8,438.0L55.3,473.3L53.7,495.2L24.7,492.6L25.0,479.5L44.0,479.8L46.7,476.4L47.8,450.1L45.0,447.2L37.3,446.2L34.3,443.1L36.5,425.2L33.3,422.5L28.9,421.9L26.9,415.2L23.1,411.8L17.9,410.5L6.3,411.7L1.2,415.5L-2.1,421.3L-4.1,468.5L0.8,480.5L9.4,481.4L14.1,480.0L17.8,477.6L20.7,478.1L20.2,491.9L-4.0,490.7L-4.5,494.7L-6.6,498.2L-26.9,497.4L-31.8,512.9L-35.5,518.8L-37.2,521.2L-42.4,521.1L-46.0,519.9L-52.1,514.7L-52.9,509.5L-53.3,504.5L-58.0,507.8L-61.5,511.8L-64.6,516.7L-66.0,521.4L-99.4,519.4L-106.6,517.7L-115.0,514.9L-121.7,510.5L-118.2,471.1L-125.8,437.3L-125.3,423.2L-132.2,392.6ZM-12.1,711.3L-15.6,710.8L-14.1,707.4L-2.0,708.1L13.2,708.1L37.9,703.8L49.7,702.1L54.0,699.1L58.6,691.8L59.8,685.1L58.8,672.3L62.5,665.7L68.1,663.2L83.0,661.0L86.7,644.2L86.6,632.2L95.5,602.7L98.0,600.8L98.2,597.1L96.0,593.3L97.9,585.6L104.7,577.4L107.0,539.5L90.6,538.8L92.0,537.6L94.3,536.3L96.9,535.8L114.2,536.5L115.1,537.2L113.4,564.5L108.0,581.4L103.4,589.0L102.6,601.3L92.6,634.8L91.4,643.3L87.7,658.1L89.4,662.0L90.1,665.9L88.9,673.5L85.2,684.4L82.5,690.9L78.8,695.1L66.6,695.7L51.8,712.8L10.1,712.4L-5.2,711.8L-12.1,711.3ZM144.1,610.0L144.2,605.6L155.0,590.1L159.3,585.7L165.0,583.7L199.2,589.8L198.4,610.2L204.3,611.9L203.0,616.1L201.1,613.9L196.5,612.6L149.5,610.7L144.1,610.0ZM135.1,593.3L133.6,587.4L133.4,577.8L141.4,565.3L133.6,558.9L141.0,552.7L143.7,538.5L204.5,541.5L204.6,547.3L200.9,549.6L197.6,557.9L191.3,571.1L187.3,574.3L178.2,575.3L172.9,573.3L172.4,567.5L160.4,570.7L151.2,574.8L142.4,582.4L135.1,593.3ZM212.4,434.7L206.5,429.7L210.9,425.0L328.3,443.4L338.8,448.0L413.3,458.8L418.4,455.8L460.8,463.6L563.7,482.7L571.8,486.8L583.5,489.2L595.8,488.6L664.4,499.7L666.0,505.4L656.3,503.9L274.6,444.4L270.4,443.8L212.4,434.7ZM190.0,485.9L197.6,432.8L199.7,423.2L210.9,425.0L206.5,429.7L212.4,434.7L270.4,443.8L267.6,523.3L245.4,522.3L245.0,536.8L95.7,531.2L93.1,530.0L91.3,528.0L90.8,525.0L92.5,477.7L93.3,476.5L95.0,475.7L97.7,475.5L189.0,490.0L190.0,485.9ZM834.0,803.9L834.4,793.4L864.0,791.9L867.1,785.7L896.2,782.8L900.0,780.7L902.0,777.4L903.7,749.1L910.0,749.2L907.0,806.7L834.0,803.9ZM838.7,719.6L836.2,717.5L835.6,715.6L837.3,712.3L840.3,711.6L847.4,711.8L902.1,693.2L907.9,688.5L909.4,685.7L917.1,681.7L933.3,681.0L941.8,678.8L951.4,675.5L953.0,676.7L950.8,679.6L940.4,684.7L937.9,687.4L937.0,690.7L939.1,696.4L956.2,703.3L967.3,701.9L967.1,683.1L958.8,678.7L957.7,676.2L958.2,674.0L959.7,671.1L988.5,659.5L997.7,657.4L1003.4,657.1L1040.6,658.7L1042.0,662.0L1016.9,661.0L998.9,660.8L995.3,661.9L992.4,664.2L987.9,668.0L990.3,671.3L993.0,705.0L995.9,708.8L998.8,709.2L1005.6,718.1L1010.0,719.7L1014.7,718.9L1014.4,729.1L960.7,727.0L941.5,710.5L927.2,708.6L927.3,699.2L907.7,698.4L867.1,713.3L862.0,713.5L845.5,719.6L838.7,719.6ZM990.3,671.3L987.9,668.0L992.4,664.2L995.3,661.9L998.9,660.8L1016.9,661.0L1014.7,718.9L1010.0,719.7L1005.6,718.1L998.8,709.2L995.9,708.8L993.0,705.0L990.3,671.3ZM513.6,796.6L518.1,811.4L519.4,813.3L520.7,814.3L522.2,814.7L525.6,814.3L630.2,776.4L686.4,755.5L742.2,735.1L742.8,732.5L744.0,712.4L693.1,733.7L686.9,732.8L513.6,796.6ZM686.4,731.1L699.3,724.5L694.7,718.2L693.8,713.4L702.1,710.7L711.1,715.0L726.0,706.0L732.6,703.9L739.4,703.3L744.6,703.4L759.2,704.3L792.9,694.8L799.4,692.7L801.4,688.9L808.9,688.5L813.2,691.4L816.0,694.9L815.6,697.2L813.2,699.2L810.5,698.9L806.7,697.3L797.9,701.1L790.9,701.5L779.9,705.5L765.3,711.2L761.8,714.2L757.2,716.3L753.1,716.4L747.2,713.6L744.0,712.4L693.1,733.7L686.9,732.8L686.4,731.1ZM686.4,731.1L680.6,712.5L693.9,706.7L702.1,710.7L693.8,713.4L694.7,718.2L699.3,724.5L686.4,731.1ZM638.6,588.7L652.3,596.7L669.6,599.5L677.1,613.4L674.1,624.6L681.2,639.9L681.5,640.6L679.8,643.4L647.7,598.7L638.6,588.7ZM679.8,643.4L681.2,639.9L689.6,644.7L694.1,654.0L689.7,657.4L679.8,643.4ZM689.7,657.4L694.1,654.0L689.6,644.7L699.4,646.0L699.8,657.4L709.9,670.8L723.5,681.8L740.0,682.2L740.9,664.6L742.6,665.5L743.4,666.8L743.7,668.5L742.8,683.4L742.0,686.2L740.8,689.1L738.6,692.2L735.1,694.9L731.5,696.5L727.2,697.2L723.4,696.5L719.5,694.8L705.1,687.0L700.0,684.9L694.7,684.2L691.8,684.5L689.7,684.1L688.2,683.5L686.8,681.9L701.2,673.4L689.7,657.4ZM719.1,698.9L724.0,700.5L727.6,701.0L731.4,700.6L736.7,698.8L739.9,696.7L742.1,694.2L743.8,691.9L745.4,689.9L744.6,703.4L739.4,703.3L732.6,703.9L726.0,706.0L711.1,715.0L719.1,698.9ZM284.1,256.9L281.4,256.5L284.1,192.6L286.9,184.3L293.0,179.9L304.5,173.5L314.4,171.5L332.0,172.3L333.0,165.6L350.5,164.6L374.7,167.3L392.2,167.4L396.8,150.6L400.8,146.9L407.9,143.0L415.7,144.3L422.1,147.9L427.6,143.7L439.1,146.2L443.0,156.5L444.5,164.6L443.3,176.6L480.8,176.6L486.3,172.7L486.3,109.0L489.6,109.2L488.5,182.6L308.4,176.3L299.3,180.3L291.0,188.9L286.3,197.6L286.1,216.2L284.1,256.9ZM267.0,147.2L272.3,142.0L280.7,141.6L283.2,134.2L289.6,133.2L292.7,139.6L298.1,140.3L303.6,143.0L303.5,147.7L267.0,147.2ZM263.0,147.1L262.7,139.3L245.3,98.3L275.6,97.1L280.0,108.1L281.9,116.2L283.2,134.2L289.6,133.2L292.7,139.6L298.1,140.3L303.6,143.0L305.5,69.6L297.2,65.6L292.0,64.5L289.0,65.7L282.2,68.3L271.1,77.7L267.7,83.6L256.6,89.7L250.5,90.0L226.4,79.0L228.2,86.6L229.7,137.0L226.7,146.6L263.0,147.1ZM226.9,63.7L237.9,61.9L249.7,60.0L265.5,59.8L266.2,65.4L276.3,63.9L282.2,68.3L271.1,77.7L267.7,83.6L256.6,89.7L250.5,90.0L226.4,79.0L225.8,76.5L226.9,63.7ZM289.0,65.7L286.3,60.2L296.4,44.3L302.8,42.4L307.4,42.1L305.5,69.6L297.2,65.6L292.0,64.5L289.0,65.7ZM237.9,61.9L249.7,29.8L260.6,29.6L251.9,21.5L247.1,22.5L242.7,21.9L238.4,20.5L236.7,17.7L236.5,12.3L233.6,12.6L230.9,19.3L226.9,63.7L237.9,61.9ZM-51.3,161.2L-49.8,154.5L-32.2,155.1L39.8,157.6L94.1,159.5L98.0,145.2L104.4,0.3L101.0,-4.1L102.2,-22.7L103.2,-39.9L69.0,-40.1L58.9,-40.2L57.7,-47.1L51.5,-48.2L52.5,-78.6L106.4,-81.9L111.0,-86.8L114.9,-85.7L115.2,-81.0L136.3,-80.7L139.2,-90.0L161.4,-90.0L163.1,-83.7L159.1,-81.9L157.6,-77.1L171.5,-76.2L163.0,2.7L234.9,5.8L248.9,-1.6L305.5,-3.7L304.0,30.8L300.3,27.4L292.5,22.7L284.4,19.7L282.1,13.1L246.0,10.9L236.5,12.3L233.6,12.6L230.9,19.3L228.8,14.4L224.9,11.0L115.5,5.9L112.7,6.8L111.6,8.9L108.3,19.3L105.5,145.3L106.2,152.3L105.9,162.7L102.5,162.6L92.4,171.7L30.7,167.8L-0.5,165.1L-27.0,164.4L-51.3,161.2ZM97.6,286.9L91.8,288.6L97.3,180.4L101.9,177.7L97.6,286.9ZM430.2,-2.0L430.1,4.0L430.0,26.3L432.9,27.6L434.0,35.1L421.6,33.4L406.9,28.0L384.1,6.8L383.8,-10.1L399.8,-5.4L416.2,-2.2L430.2,-2.0ZM435.7,3.8L464.9,22.3L487.9,25.5L491.2,-18.2L488.3,-19.0L488.5,-12.9L483.2,-6.2L457.1,-6.5L454.7,-1.1L451.3,0.7L449.0,-1.0L447.1,-5.7L436.2,-7.4L435.7,3.8ZM709.7,189.3L720.4,173.6L729.7,142.8L740.1,146.7L749.3,148.4L746.1,189.8L709.7,189.3ZM978.9,55.6L980.7,46.0L979.4,37.8L975.1,31.3L970.2,26.7L983.4,23.4L996.6,24.2L995.5,60.1L978.9,55.6Z" fill-rule="evenodd"/>
<path class="map-water" d="M790.8,621.0L786.4,618.1L781.4,622.4L779.2,626.7L777.1,637.1L776.6,650.7L774.0,659.8L768.5,667.7L759.5,678.0L756.6,685.4L751.2,684.4L751.2,686.9L751.2,689.1L755.8,692.1L760.1,694.0L768.3,693.4L785.2,686.5L789.2,680.6L793.4,678.2L797.9,679.2L805.5,681.9L811.9,682.5L812.7,680.4L815.6,679.6L816.9,676.1L814.3,668.9L814.8,666.4L813.2,663.2L810.3,662.1L810.3,659.5L790.8,621.0ZM824.9,680.0L823.7,683.3L828.5,688.6L837.0,688.0L867.7,677.4L876.5,671.3L884.2,656.5L890.2,649.4L894.5,649.1L896.0,651.4L896.1,654.6L893.9,657.9L892.3,659.2L893.7,661.3L905.1,658.7L919.2,652.2L921.7,648.0L922.2,641.6L919.8,627.9L916.0,619.9L911.2,613.6L900.0,606.0L890.1,599.3L885.1,597.5L879.5,597.8L875.4,599.7L872.2,603.7L869.9,613.0L868.0,654.1L866.9,662.2L862.3,669.4L855.4,673.6L845.2,677.4L837.8,677.7L835.3,677.6L830.3,679.5L824.9,680.0ZM708.0,88.5L712.7,93.1L717.6,92.6L719.2,94.7L716.4,96.5L719.9,97.9L728.7,99.4L734.6,103.8L745.9,115.0L747.4,122.4L752.6,112.1L756.2,105.3L764.9,91.2L775.7,70.6L775.3,64.8L774.3,61.6L772.3,55.7L767.7,54.9L756.6,58.6L734.1,66.4L723.5,74.1L713.0,86.4L708.0,88.5ZM973.1,75.8L983.2,69.9L993.0,74.0L1005.9,90.8L993.1,99.0L987.9,98.0L984.3,91.3L977.1,83.0L973.1,75.8ZM153.6,695.8L162.8,698.7L166.6,692.2L168.6,685.0L162.3,680.2L156.6,679.4L151.5,686.0L153.6,695.8ZM322.9,141.6L316.8,128.0L315.6,123.9L318.3,120.2L321.2,119.7L359.0,122.1L361.0,123.1L361.2,124.6L360.5,127.0L352.6,137.1L348.2,140.1L343.6,141.6L338.6,142.3L334.0,142.0L331.1,140.6L327.9,141.6L325.4,142.3L322.9,141.6ZM54.5,136.1L46.7,135.7L43.2,133.7L42.3,131.0L43.2,128.8L45.5,126.3L49.8,124.9L58.9,120.7L62.6,116.0L65.1,110.8L66.3,105.5L66.5,101.7L67.1,98.8L68.5,94.1L70.5,94.4L72.4,100.5L73.2,111.6L72.4,116.8L70.3,123.2L67.6,127.0L64.4,131.3L61.2,133.7L58.5,135.1L54.5,136.1Z" fill-rule="evenodd"/>
<path class="map-building" d="M138.4,456.5L179.5,463.1L182.7,443.0L141.6,436.4L138.4,456.5ZM869.5,732.2L883.4,732.8L883.8,722.6L906.8,723.6L907.1,715.7L886.7,714.9L886.6,716.3L881.8,716.1L881.8,717.5L876.4,717.3L876.0,727.1L870.6,726.8L870.7,724.3L863.5,724.0L863.5,726.0L863.2,732.0L865.3,732.1L865.2,733.8L869.4,733.9L869.5,732.2ZM918.4,724.4L939.1,725.3L949.1,733.7L949.0,737.5L946.8,737.5L946.7,742.0L951.5,742.2L951.5,743.0L957.8,743.2L958.2,731.1L942.5,717.1L920.3,716.1L920.2,718.4L918.7,718.3L918.4,724.4ZM863.2,732.0L850.8,731.5L851.0,725.4L863.5,726.0L863.2,732.0ZM935.5,573.7L935.4,581.3L944.0,581.5L943.9,582.7L949.2,582.8L949.3,578.8L950.4,578.9L950.5,574.1L935.5,573.7ZM122.2,365.7L138.8,366.0L138.7,366.8L156.6,367.1L156.8,357.7L122.3,357.1L122.2,365.7ZM632.0,63.1L632.2,64.3L637.7,63.3L637.5,62.1L635.8,62.4L635.7,62.0L633.6,62.4L633.6,62.8L632.0,63.1ZM697.6,430.1L705.4,430.4L704.4,449.2L696.2,448.9L697.6,430.1ZM73.6,419.3L84.6,420.9L82.6,435.1L71.5,433.5L73.6,419.3ZM791.0,537.1L824.7,537.4L824.6,547.4L790.9,547.1L791.0,537.1ZM377.0,205.3L376.9,209.1L383.5,209.4L383.7,205.6L377.0,205.3ZM366.5,207.9L368.3,211.2L374.2,208.0L372.4,204.7L366.5,207.9ZM367.7,221.7L365.6,224.9L371.3,228.5L373.3,225.3L367.7,221.7ZM376.4,224.1L376.2,227.9L382.9,228.2L383.1,224.4L376.4,224.1ZM385.4,224.4L385.2,228.2L391.9,228.5L392.1,224.7L385.4,224.4ZM394.4,224.8L394.2,228.6L400.9,228.9L401.1,225.1L394.4,224.8ZM403.3,225.2L403.1,229.0L409.8,229.3L410.0,225.5L403.3,225.2ZM412.4,225.5L412.2,229.3L418.9,229.6L419.1,225.8L412.4,225.5ZM413.3,206.5L413.1,210.2L419.8,210.5L420.0,206.8L413.3,206.5ZM420.8,229.6L420.9,225.8L424.0,225.8L424.0,225.5L427.5,225.6L427.4,229.8L420.8,229.6ZM422.8,206.8L422.7,210.7L425.8,210.8L425.8,211.1L429.3,211.2L429.4,207.0L422.8,206.8ZM443.1,207.9L443.0,211.7L449.6,212.0L449.8,208.2L443.1,207.9ZM452.3,208.1L452.2,211.9L458.8,212.2L459.0,208.4L452.3,208.1ZM461.5,208.3L461.4,212.1L468.0,212.4L468.2,208.6L461.5,208.3ZM470.6,208.5L470.4,212.3L477.1,212.6L477.3,208.8L470.6,208.5ZM479.3,208.8L479.1,212.6L485.8,212.9L485.9,209.1L479.3,208.8ZM488.5,209.1L488.3,212.9L495.0,213.2L495.1,209.4L488.5,209.1ZM497.4,209.2L497.3,213.0L504.0,213.3L504.1,209.5L497.4,209.2ZM375.3,242.7L375.1,246.5L381.8,246.8L382.0,243.0L375.3,242.7ZM364.9,244.9L366.5,248.4L372.5,245.6L370.9,242.1L364.9,244.9ZM384.6,243.1L384.4,246.9L391.1,247.2L391.3,243.4L384.6,243.1ZM393.5,243.2L393.3,247.0L400.0,247.3L400.2,243.5L393.5,243.2ZM402.8,243.7L402.7,247.5L409.3,247.8L409.5,244.0L402.8,243.7ZM411.8,243.9L411.6,247.7L418.3,248.0L418.4,244.2L411.8,243.9ZM421.1,244.2L420.9,248.0L427.6,248.3L427.8,244.5L421.1,244.2ZM385.9,205.2L385.7,211.3L388.7,211.5L388.7,211.2L392.7,211.3L392.8,206.5L389.0,206.4L389.0,205.3L385.9,205.2ZM395.0,205.6L394.8,211.7L397.8,211.8L397.8,211.6L401.7,211.7L401.9,206.9L398.1,206.8L398.1,205.7L395.0,205.6ZM403.9,205.9L403.7,212.0L406.7,212.1L406.7,211.9L410.7,212.0L410.8,207.2L407.0,207.1L407.0,206.0L403.9,205.9ZM441.9,230.4L441.9,226.6L445.1,226.6L445.1,226.3L448.5,226.4L448.4,230.6L441.9,230.4ZM451.9,226.8L451.7,230.6L458.4,230.9L458.5,227.1L451.9,226.8ZM469.8,227.6L469.7,231.4L476.3,231.7L476.5,227.9L469.8,227.6ZM478.6,227.9L478.4,231.7L485.1,231.9L485.3,228.2L478.6,227.9ZM487.6,228.2L487.4,232.0L494.1,232.3L494.2,228.5L487.6,228.2ZM461.1,231.0L461.1,227.1L464.3,227.2L464.3,226.9L467.7,227.0L467.6,231.2L461.1,231.0ZM497.0,232.4L497.1,228.5L500.2,228.6L500.2,228.3L503.6,228.4L503.6,232.6L497.0,232.4ZM497.9,141.6L498.0,138.4L496.6,138.4L496.7,136.3L498.2,136.3L498.2,135.0L500.5,135.1L500.6,133.4L504.4,133.5L504.3,135.4L504.4,135.4L504.3,138.5L503.6,138.4L503.6,138.7L503.4,138.7L503.3,141.7L497.9,141.6ZM493.8,151.9L495.3,152.0L495.3,151.4L495.4,151.4L495.4,150.7L495.3,150.7L495.5,146.5L497.7,146.6L497.6,147.3L499.4,147.4L499.4,146.0L502.7,146.1L502.6,147.7L502.8,147.7L502.6,150.9L500.8,150.8L500.8,152.2L500.6,152.2L500.6,153.2L500.2,153.2L500.1,154.7L493.7,154.4L493.8,151.9ZM517.4,166.1L518.3,164.9L518.0,164.7L520.0,162.2L521.6,163.4L521.8,163.1L521.3,162.7L522.8,160.9L527.8,165.0L525.2,168.3L525.4,168.5L523.7,170.6L522.2,169.5L521.9,169.7L520.8,168.8L520.7,169.0L519.5,168.1L519.6,167.9L517.4,166.1ZM520.8,145.4L527.8,145.6L527.7,149.9L528.9,150.0L528.8,152.5L527.4,152.4L527.4,154.8L520.4,154.6L520.5,152.5L520.6,152.5L520.6,151.3L520.5,151.3L520.6,147.7L520.7,147.7L520.8,145.4ZM448.3,261.0L450.0,261.0L450.0,260.8L452.0,260.8L452.0,260.5L454.4,260.5L454.4,261.1L456.2,261.2L456.2,267.8L453.8,267.8L453.8,269.1L452.1,269.1L452.1,269.4L450.2,269.3L450.3,267.7L448.2,267.6L448.3,261.0ZM458.7,261.3L460.4,261.4L460.5,261.1L464.7,261.3L464.7,261.6L466.7,261.7L466.4,268.4L464.3,268.3L464.3,269.9L460.4,269.8L460.5,268.1L458.4,268.0L458.7,261.3ZM457.9,284.9L460.0,285.0L460.0,283.3L463.9,283.4L463.8,285.0L465.9,285.1L465.7,291.9L463.8,291.8L463.8,292.1L459.5,292.0L459.5,291.6L457.7,291.6L457.9,284.9ZM447.5,284.5L449.5,284.6L449.6,283.2L451.2,283.2L451.2,283.0L453.4,283.0L453.4,284.7L455.4,284.8L455.2,291.5L453.3,291.4L453.3,291.7L451.3,291.6L451.3,292.0L449.1,291.9L449.1,291.3L447.2,291.2L447.5,284.5ZM437.1,284.0L439.2,284.0L439.3,282.6L443.1,282.7L443.0,284.1L445.0,284.2L444.8,290.9L442.9,290.9L442.9,291.3L438.8,291.2L438.8,290.7L436.9,290.6L437.1,284.0ZM150.4,328.3L155.7,187.7L234.2,190.6L229.1,331.6L150.4,328.3ZM441.5,339.5L442.3,317.7L555.6,321.8L554.8,343.5L441.5,339.5ZM725.2,9.4L728.0,2.2L734.8,4.8L734.6,5.3L735.2,5.5L732.0,13.7L729.8,12.8L730.4,11.4L725.2,9.4ZM951.7,193.9L951.9,187.1L955.3,187.2L955.2,188.5L958.4,188.6L958.2,194.1L951.7,193.9ZM-8.0,570.4L-7.4,570.5L-7.3,569.6L-4.6,569.7L-4.5,568.7L-1.4,568.9L-1.4,569.2L0.1,569.3L0.1,572.5L-1.4,572.4L-1.5,576.3L-3.7,576.2L-3.7,576.8L-5.9,576.7L-5.9,578.0L-8.2,577.9L-8.0,570.4ZM4.0,569.8L5.8,570.0L5.8,569.5L7.6,569.7L7.5,570.2L9.3,570.4L9.3,570.0L13.8,570.7L13.3,574.2L11.7,574.0L11.2,577.7L8.1,577.3L8.0,578.0L3.1,577.4L4.0,569.8ZM-5.4,612.2L-0.5,612.6L-0.5,613.1L3.7,613.5L3.0,620.5L-1.6,620.1L-1.6,619.8L-4.7,619.6L-4.5,615.7L-5.8,615.6L-5.4,612.2ZM809.3,463.9L837.1,468.2L835.8,476.6L808.0,472.3L809.3,463.9ZM820.4,443.8L820.1,460.2L811.6,460.0L812.0,443.6L820.4,443.8ZM832.5,416.3L831.8,436.0L814.9,435.4L815.6,415.8L832.5,416.3ZM833.1,388.6L832.6,407.9L815.9,407.4L816.5,388.1L833.1,388.6ZM834.1,360.8L833.5,380.2L816.9,379.7L817.5,360.3L834.1,360.8ZM835.5,315.5L834.5,351.6L817.8,351.1L818.8,315.0L835.5,315.5ZM784.3,318.1L782.7,353.0L769.2,352.8L770.3,317.7L784.3,318.1ZM748.0,318.0L747.1,346.0L725.0,345.0L725.7,317.2L748.0,318.0ZM691.4,343.7L691.0,360.9L666.1,360.2L666.6,343.0L691.4,343.7ZM291.7,369.6L298.6,369.9L298.2,381.2L291.2,380.9L291.7,369.6ZM292.1,351.4L306.1,351.9L305.7,363.1L291.7,362.6L292.1,351.4ZM313.9,377.0L321.4,377.2L320.9,392.1L317.0,392.0L317.0,394.4L314.0,394.3L314.1,391.9L313.4,391.9L313.9,377.0ZM326.9,363.7L337.1,364.2L336.3,382.1L335.8,382.1L335.5,388.4L326.4,388.0L326.7,381.7L326.1,381.7L326.9,363.7ZM352.4,378.9L357.2,379.1L357.2,378.8L360.7,378.9L360.5,384.4L356.9,384.3L356.9,385.4L354.0,385.3L354.1,384.2L352.3,384.2L352.4,378.9ZM387.0,336.4L397.5,336.9L396.5,361.5L385.9,361.1L387.0,336.4ZM408.1,338.3L417.1,338.6L416.4,361.0L407.4,360.7L408.1,338.3ZM396.0,367.5L406.0,367.8L405.2,392.3L404.2,392.3L396.4,392.1L395.2,392.0L396.0,367.5ZM404.2,392.3L403.8,402.0L401.6,401.9L401.5,403.1L398.3,403.0L398.3,401.8L395.1,401.7L395.2,398.6L396.2,398.7L396.4,392.1L404.2,392.3ZM547.6,380.4L555.7,385.7L546.2,400.5L538.1,395.2L547.6,380.4ZM437.6,395.3L461.3,396.1L461.0,405.9L437.2,405.1L437.6,395.3ZM482.3,396.8L506.8,397.8L506.4,407.6L482.0,406.7L482.3,396.8ZM375.9,304.7L386.9,305.2L385.7,330.0L374.7,329.5L375.9,304.7ZM406.7,307.3L417.1,307.7L416.2,331.4L405.8,331.0L406.7,307.3ZM568.6,318.5L578.1,318.9L577.6,330.7L568.1,330.4L568.6,318.5ZM565.8,334.5L577.4,334.8L576.4,369.4L564.8,369.0L565.8,334.5ZM566.2,378.9L576.4,379.4L575.4,403.2L565.1,402.7L566.2,378.9ZM557.8,414.0L561.6,414.1L561.7,413.1L565.6,413.2L565.5,414.2L582.0,414.7L581.7,425.1L557.5,424.4L557.8,414.0ZM616.0,401.5L630.3,401.9L630.0,413.7L628.8,413.6L628.6,422.8L616.1,422.4L616.4,413.5L615.7,413.5L616.0,401.5ZM628.0,388.6L616.3,388.2L617.8,342.7L629.5,343.1L628.0,388.6ZM612.3,318.1L624.0,318.5L623.4,336.1L611.8,335.7L612.3,318.1ZM330.6,284.9L340.9,285.3L339.7,314.5L329.4,314.1L330.6,284.9ZM848.4,467.0L858.5,468.5L858.7,467.5L863.2,468.1L862.4,473.5L861.4,473.3L860.2,481.3L861.2,481.4L860.4,486.8L856.1,486.1L856.2,485.1L845.9,483.5L848.4,467.0ZM858.4,450.2L872.6,452.5L871.3,461.1L857.0,458.8L858.4,450.2ZM889.4,475.9L917.0,480.6L916.1,486.2L917.3,486.4L916.7,490.1L887.9,485.3L889.4,475.9ZM901.0,451.8L911.4,452.2L910.9,468.1L900.5,467.7L901.0,451.8ZM904.0,424.5L912.5,424.7L912.1,438.6L913.7,438.6L913.5,446.3L903.5,446.1L904.0,424.5ZM862.4,434.1L879.6,434.4L879.4,441.6L862.3,441.3L862.4,434.1ZM868.3,414.6L880.5,414.8L880.3,422.2L871.0,422.1L871.0,424.1L868.2,424.1L868.3,414.6ZM865.3,398.2L879.6,398.5L879.3,409.2L865.0,408.9L865.3,398.2ZM874.0,364.9L882.7,365.2L882.0,393.1L873.3,392.9L874.0,364.9ZM908.3,381.1L929.7,381.9L929.3,393.2L907.9,392.4L908.3,381.1ZM907.9,411.5L917.2,411.7L917.1,418.8L907.7,418.5L907.9,411.5ZM854.7,333.6L884.0,334.5L883.6,345.9L865.7,345.4L865.3,358.3L874.7,358.6L874.6,362.6L853.9,362.0L854.7,333.6ZM857.5,314.1L864.7,314.3L864.5,321.5L884.2,322.2L884.0,329.2L857.1,328.4L857.5,314.1ZM902.9,331.7L937.8,332.7L937.4,346.7L902.5,345.7L902.9,331.7ZM944.5,367.1L950.9,367.3L950.8,373.6L944.4,373.5L944.5,367.1ZM961.7,372.4L982.6,373.2L982.2,383.2L961.4,382.5L961.7,372.4ZM995.0,380.4L1008.9,380.7L1008.8,391.2L994.8,390.9L995.0,380.4ZM992.6,329.9L1008.3,337.3L1003.2,348.0L987.5,340.6L992.6,329.9ZM962.4,326.5L973.7,326.9L973.0,348.5L961.7,348.1L962.4,326.5ZM882.7,312.0L870.9,311.5L872.6,269.4L884.4,269.9L882.7,312.0ZM904.1,291.3L923.7,291.7L923.4,306.2L903.8,305.8L904.1,291.3ZM908.7,250.1L929.5,250.9L928.9,265.3L908.1,264.5L908.7,250.1ZM940.5,252.2L954.8,252.6L954.5,263.1L940.3,262.7L940.5,252.2ZM870.6,241.7L885.0,242.2L884.1,264.8L869.7,264.2L870.6,241.7ZM959.1,290.1L979.2,290.7L978.9,300.7L958.8,300.1L959.1,290.1ZM936.4,291.9L953.8,292.4L953.5,304.3L936.0,303.8L936.4,291.9ZM971.9,462.2L983.7,462.5L983.4,469.9L985.2,470.0L984.9,478.2L983.2,478.1L982.6,496.7L980.9,498.5L970.7,498.2L971.9,462.2ZM972.4,432.5L1013.9,433.9L1014.7,411.4L973.1,409.9L972.4,432.5ZM929.6,474.5L936.7,474.7L936.1,497.1L929.0,496.9L929.6,474.5ZM840.6,586.3L827.4,585.8L827.1,590.2L823.3,590.0L823.3,588.7L816.5,588.5L816.3,591.3L809.3,591.1L809.1,597.1L816.1,597.3L816.0,603.3L825.2,603.6L825.2,604.0L829.9,604.2L830.0,600.5L834.5,600.7L834.4,604.1L841.1,604.3L841.7,591.6L840.5,591.5L840.6,586.3ZM986.3,745.1L986.3,739.0L991.8,739.2L991.8,740.9L994.8,740.9L994.8,745.1L986.3,745.1ZM997.7,735.0L990.3,735.0L990.3,730.6L997.7,730.4L997.7,735.0ZM973.0,739.2L980.6,739.2L980.6,743.4L973.0,743.2L973.0,739.2ZM970.1,736.9L968.2,736.9L968.2,733.7L970.1,733.7L970.1,736.9Z" fill-rule="evenodd"/>
<path class="map-road-minor" d="M178.8,537.2L179.5,525.7M745.6,658.8L753.0,658.6L755.6,655.4L756.2,652.3L756.4,650.8L756.7,635.1L753.3,632.0L746.7,631.4M959.3,589.3L935.8,588.4M836.9,562.1L837.3,553.9L837.3,552.3L837.5,547.3L837.6,545.4L829.1,545.0M837.5,547.3L848.0,547.4M837.3,552.3L816.7,551.7L804.2,550.6M837.3,553.9L852.6,554.2M997.9,568.5L997.8,576.0L997.5,597.9L1004.7,598.0L1032.9,598.7L1039.2,595.7M-35.8,125.8L-5.1,127.8L-3.6,104.3L2.3,14.9L3.8,-8.7L-26.5,-10.6M-3.6,104.3L26.5,106.1L31.6,16.9L2.3,14.9M279.0,260.6L318.1,262.9L331.4,263.5L339.2,265.1M318.1,262.9L319.7,240.7M182.3,487.2L189.2,439.0L137.2,431.1L133.6,430.5L127.9,429.6L123.2,459.8L120.4,477.2M123.2,459.8L133.0,461.4L137.2,431.1M84.9,446.9L79.5,487.0M911.0,748.7L911.4,739.3L911.8,729.8L912.6,710.2L896.0,710.0L889.7,710.9L881.8,712.9L873.2,717.1L868.9,717.6L858.7,718.6L852.7,719.7L848.5,721.8L847.1,724.1L846.6,736.6L846.1,746.0M846.6,736.6L888.9,738.3L911.4,739.3M911.8,729.8L889.2,728.9L888.9,738.3M940.9,749.9L941.2,740.8L941.3,736.3M941.3,736.3L939.6,733.5L936.7,731.5L934.1,730.7L911.8,729.8M911.4,739.3L941.2,740.8M912.6,710.2L920.2,710.4M148.6,385.4L150.0,377.3M614.9,58.3L620.3,57.6L626.7,56.9L627.3,62.6M697.7,469.6L699.6,461.1L708.2,453.3L713.9,442.6L713.7,424.8L713.1,414.0L695.8,413.3M699.6,461.1L696.2,453.3L691.1,444.7L689.3,436.1L691.1,428.0L696.8,424.5L705.7,424.4L713.7,424.8M355.3,328.0L369.8,328.2L371.3,304.9M591.4,431.0L602.5,431.2L607.5,431.2L608.5,415.6M463.3,300.2L463.1,313.7L523.8,316.1L531.3,314.3L534.4,311.0L535.9,302.7M432.3,347.0L476.5,349.2L533.2,350.9M476.5,349.2L475.4,363.9L473.5,377.8M435.8,410.5L471.8,412.1L507.6,413.5M358.6,339.8L365.3,338.1L380.2,338.3L382.2,339.5L382.8,341.9L382.3,355.0L381.5,357.2L379.5,358.4L368.3,359.7M991.2,361.0L994.0,367.6L998.2,371.0L1005.0,373.8L1010.6,375.5L1012.5,378.6L1012.5,384.5M991.2,361.0L990.6,382.2M956.0,359.9L956.2,350.6L977.9,351.2L977.7,360.6M991.2,361.0L995.9,346.7M957.7,277.9L961.3,284.5L979.4,285.3M957.7,277.9L952.0,267.1L940.5,266.8L940.0,277.2M935.3,277.1L935.2,286.1L947.5,286.6L957.7,277.9M594.8,343.7L611.7,343.8L610.4,385.8L592.8,385.7M313.9,366.0L313.5,349.5L314.1,330.3L292.0,322.2L293.7,288.4L316.3,290.1L314.1,330.3M287.4,650.6L283.3,650.6L281.3,650.8L279.8,651.1L278.2,651.7L276.7,652.6L275.3,653.8L273.6,655.4L270.9,658.3L264.1,665.9L262.9,667.4L262.3,668.3L262.3,669.2L263.0,670.9M280.7,365.0L284.0,365.1L289.0,365.2L302.1,365.6L313.9,366.0M280.7,365.0L276.0,365.0M306.7,116.3L312.8,116.4L321.2,116.4L368.8,119.1L373.3,118.2L378.7,117.1L381.3,117.1L383.1,118.2L383.4,120.8L382.0,123.3L380.4,124.4L377.4,124.4L371.3,121.3L368.8,119.1M345.2,395.8L345.1,332.2M594.8,338.8L582.3,338.3L581.1,368.2L593.4,368.7M592.8,383.2L583.6,382.9L582.8,402.2L592.1,402.4M259.6,57.0L267.0,58.3L271.4,57.5L276.6,53.5L285.2,46.5L292.4,43.0L299.8,41.0L309.6,40.0M663.1,519.7L698.1,522.3M661.9,530.6L696.9,532.1M718.0,525.3L757.7,531.8M718.0,532.4L756.4,540.1M22.6,531.4L23.8,520.4L24.1,513.5L25.4,509.4L29.6,504.1L33.6,501.7M1033.7,121.0L1030.1,120.1L1025.0,119.8L1011.3,119.1L1002.1,119.2L993.6,118.5L984.5,117.0L976.2,114.2L968.0,109.8L965.1,107.7L962.4,105.8M289.9,577.5L315.2,578.8L330.9,577.5L339.5,571.7L344.3,562.6L345.6,556.9L345.1,550.0M852.0,440.6L863.2,444.2L891.2,445.8M874.0,426.2L891.9,427.1M893.5,382.9L900.8,383.0L917.6,371.0L917.2,358.7M867.3,283.7L867.2,309.8L870.3,312.4L873.3,312.7L895.2,313.2M901.0,246.4L925.9,247.4M910.4,268.6L926.4,269.2L926.0,276.7M880.8,472.0L892.9,474.2L914.8,477.7M877.0,487.3L888.2,489.8L913.0,494.5M591.4,431.0L555.5,429.3L551.5,428.3L549.0,423.6L549.1,419.1L550.5,415.9L552.8,412.7L557.3,410.5L564.5,410.2L581.1,411.2L585.5,413.4L588.7,415.0L591.6,415.3M611.7,343.8L614.8,340.2L627.3,340.7L631.5,342.0L634.6,343.9L636.0,346.2L635.7,349.0L631.7,353.7L631.0,383.6M595.3,329.2L583.1,328.8M404.4,298.2L403.9,304.7L403.8,307.2L403.0,319.6L402.5,327.2M389.9,399.2L390.4,389.3L391.5,369.1M389.9,399.2L391.2,404.9L394.3,406.9L400.3,407.0M283.9,348.5L313.5,349.5M803.3,560.9L803.9,554.7L804.2,550.6L783.6,549.3L783.2,542.6L784.1,532.1L788.9,530.8L801.7,531.3L816.4,534.5L835.4,537.1L851.5,538.9M150.0,377.3L154.6,374.6L162.2,373.4L186.6,376.2L210.0,378.2L227.4,380.4L245.9,382.6L255.9,384.2L259.2,383.9L262.0,382.3L263.9,378.3L264.3,369.0L264.3,365.2L242.9,366.7L213.4,365.7L166.5,361.6L164.4,362.6L163.0,364.0L162.2,373.4M276.0,365.0L272.3,365.0L264.3,365.2M286.2,727.2L273.8,727.0L271.7,727.2L269.2,728.3L267.8,730.0L266.7,736.2M288.3,617.1L264.6,616.6M307.4,408.0L309.2,391.1L310.0,374.7M291.4,551.6L304.1,552.2L306.0,551.3L307.1,549.6L307.9,542.7M997.8,576.0L1003.9,576.7L1005.2,579.0L1004.7,598.0M910.5,350.4L928.4,351.0L928.1,359.0M696.1,542.0L679.6,540.4L679.1,540.4L663.1,539.2M901.0,246.4L893.7,246.2L891.7,257.8L890.6,265.0L896.6,266.7M891.7,257.8L897.7,259.1M896.2,275.6L893.1,275.9L891.6,276.6L889.7,278.2L889.2,280.3L889.3,290.2L889.3,296.4L889.3,301.8L889.6,303.7L890.3,304.7L892.2,305.6L895.4,305.8M889.3,290.2L895.8,290.4M911.2,276.1L911.0,284.4L923.4,284.7L923.6,276.6M132.9,172.1L144.4,172.5L250.5,176.8L259.8,177.1L263.2,179.2L267.1,183.8L267.6,187.5L260.9,341.8L259.0,344.5L256.1,346.6L250.9,347.3L243.5,346.9L170.6,341.7M144.4,172.5L144.2,180.6L143.9,192.3L139.6,322.7L139.6,323.6L139.0,340.5M144.2,180.6L240.9,184.1L250.5,184.4L243.5,346.9M250.5,184.4L250.5,176.8M170.6,341.7L167.6,339.0L160.1,338.8L158.5,338.8L155.2,341.3M155.2,341.3L147.0,341.3L139.0,340.5L132.9,338.6L124.6,332.4L114.7,325.0L98.1,311.0L94.9,308.2M170.6,341.7L167.6,343.5L163.1,343.4L158.6,343.2L155.2,341.3M436.6,391.2L435.8,410.5M508.4,394.1L472.1,392.3L436.6,391.2M507.6,413.5L508.4,394.1M350.2,391.0L350.7,391.0L360.5,391.4L362.9,391.5L369.5,390.8L376.4,389.1L390.4,389.3M345.1,332.2L356.2,331.0M344.0,413.1L345.2,395.8M284.0,365.1L283.9,348.5M300.3,406.9L301.3,385.4L302.0,369.4L302.1,365.6M288.6,384.7L288.6,374.4L289.0,365.2M301.3,385.4L288.6,384.7M90.0,486.8L79.5,487.0L66.1,484.5L73.3,445.5M73.3,445.5L74.1,442.2L77.9,439.3L82.6,439.6L85.4,443.7L84.9,446.9M994.7,518.2L995.2,502.6L996.5,468.8L996.9,456.0M995.2,502.6L1003.2,502.5L1004.6,469.0L996.5,468.8M995.2,502.6L987.6,502.3L970.3,502.0M987.6,502.3L988.8,468.7L988.5,462.7L986.3,459.8L982.7,458.1L975.2,458.4M988.8,468.7L996.5,468.8M996.9,456.0L990.4,446.1L974.6,445.9M1015.8,440.0L1016.4,407.6L978.0,406.6M974.6,445.9L974.7,438.9L990.6,439.2L990.4,446.1M990.6,439.2L1015.8,440.0L1008.8,446.8M990.4,446.1L1008.8,446.8M996.9,456.0L1008.9,456.1L1021.3,456.5M695.4,325.7L687.1,336.6L670.8,336.1M719.2,319.1L718.0,343.1L714.6,347.4M760.8,319.5L759.9,351.2L759.5,365.4M739.8,349.6L759.9,351.2L764.7,351.9L767.8,355.5L786.0,356.3M800.0,336.5L791.4,321.0L788.0,326.6L786.0,356.3L785.7,366.8M791.4,321.0L795.9,316.7L812.7,318.8L811.8,351.0L815.5,353.2L836.6,354.2L838.0,323.1M799.5,350.7L811.8,351.0M798.7,372.0L809.7,372.6M811.9,361.6L811.7,369.2L809.7,372.6L811.5,375.8L811.4,381.2L835.9,381.9L836.5,363.0M811.0,389.9L810.6,400.3L807.6,406.1L810.3,409.3L834.8,410.0L835.2,391.4M797.4,405.4L807.6,406.1M809.4,417.8L808.9,427.5L806.2,432.8L808.4,436.8L834.0,437.7L834.4,419.0M796.7,432.1L806.2,432.8M795.9,449.9L806.6,454.3L807.8,457.3L807.5,461.9L805.3,463.9L795.4,461.9M807.1,445.0L806.6,454.3M807.5,461.9L835.9,465.9M805.3,463.9L804.7,475.5L831.8,480.4M526.0,379.2L533.1,358.8L533.2,350.9M885.3,461.3L876.0,459.2L877.0,452.1M923.3,507.1L924.7,498.4L925.9,454.8M314.5,728.2L314.4,731.1"/>
<path class="map-road" d="M695.4,550.4L674.3,551.1L670.2,549.0L666.3,546.9L663.6,542.5L663.1,539.2L661.9,530.6L662.6,522.1L663.1,519.7L664.5,512.9L665.2,512.1L667.9,510.4L674.5,509.0L678.5,509.0L704.6,513.3L713.4,514.8L754.5,521.1M-1312.1,160.7L-1273.0,167.1L-1195.5,180.2L-1178.8,182.7L-1147.0,187.6L-1089.4,196.4L-1086.8,196.8L-1048.6,202.7L-1024.3,206.4L-1021.7,206.6L-970.3,210.1L-954.8,213.7L-943.3,214.6L-931.7,213.8L-921.6,211.1L-912.2,206.7L-904.7,201.3L-879.3,182.7L-841.3,154.9L-831.1,150.9L-820.5,148.8L-808.5,148.4L-794.4,150.6L-771.4,156.3L-765.4,157.8L-759.7,159.8L-755.2,161.2L-750.2,162.7L-721.2,175.1L-712.0,182.1L-659.8,242.4L-652.2,250.6L-642.4,258.2L-634.8,261.7L-622.1,265.8L-603.0,269.6L-583.1,272.7L-488.0,287.0L-442.5,294.0L-386.6,302.4L-308.7,314.8L-256.8,322.9L-186.6,333.7L-131.0,342.3L-89.4,348.8L-33.6,357.1L65.7,372.7L148.6,385.4L179.8,390.2L274.6,403.0M289.5,179.0L299.4,172.5L303.1,168.4L304.9,164.5M397.0,502.5L395.7,545.9M510.6,595.6L510.2,617.2L514.3,640.8L521.4,659.4L529.1,673.9L557.8,713.0L565.1,732.9M324.8,-558.9L323.4,-514.4L323.0,-498.3L323.0,-471.3L322.9,-464.5L322.9,-438.2L322.9,-430.7L322.3,-401.9L322.1,-391.4L321.4,-355.4L321.3,-353.7L321.3,-350.2L321.1,-344.1L321.1,-328.9L320.4,-291.7L319.9,-270.4L319.9,-269.6L320.4,-246.2L320.2,-233.4L319.3,-193.0L318.6,-184.2L318.1,-161.9L315.3,-111.1L315.1,-107.0L314.7,-96.7L314.5,-88.9L313.5,-49.1L312.7,-20.7L309.6,40.0L308.1,69.3L306.7,116.3L305.4,163.5L304.9,164.5M745.4,662.4L727.3,661.6L723.6,660.0L721.7,658.1L720.0,654.5L719.9,627.8L721.4,591.5L720.1,586.9L717.6,584.5L714.4,582.6L711.4,582.1L663.7,578.9L659.8,577.8L656.6,575.1L654.8,571.4L654.3,554.8M565.1,732.9L566.0,735.6L570.3,747.8L569.3,753.2M289.0,593.6L325.4,594.3L335.0,592.0L344.9,586.6L352.3,579.4L355.8,571.5L358.6,560.3L360.6,544.5M353.9,500.7L354.5,479.1M958.6,46.7L948.8,48.9L910.4,47.6L903.9,44.2L896.1,43.2L881.8,43.0L876.2,41.3L872.7,43.8L872.3,56.5L868.5,178.0M532.1,506.8L530.1,549.6M470.8,729.9L461.3,734.0L454.2,734.6L325.7,728.6M518.2,750.2L511.2,733.3L502.8,716.1M686.0,687.5L651.8,701.7L649.6,702.6L611.2,715.7L608.1,716.8L568.2,731.7L565.1,732.9L520.7,749.3L518.2,750.2L487.3,762.6L483.6,764.1L462.1,772.5L449.8,775.1L421.5,774.1L338.5,770.1L329.4,770.7M563.2,-182.0L563.0,-177.0L562.2,-151.4L562.2,-130.9L563.6,-113.8L571.2,-74.6L573.7,-69.7L577.2,-65.2L590.6,-54.5L610.8,-40.1L615.2,-35.8L619.1,-31.5L625.8,-20.0L627.6,-16.9L640.9,7.6L644.7,18.3L646.6,26.4L647.3,35.3L646.4,62.4L646.9,73.3L647.8,76.3L649.8,83.7L654.8,95.3M274.6,403.0L275.1,383.4L276.0,365.0L278.1,284.1L278.2,280.8L279.0,260.6L281.7,191.0L283.2,185.8L286.0,181.2L289.5,179.0M331.7,633.4L328.4,639.5L327.4,689.4L325.7,728.6L327.4,752.2L326.3,765.3L329.4,770.7M957.7,277.9L940.0,277.2L935.3,277.1L926.0,276.7L923.6,276.6L911.2,276.1L896.2,275.6M521.4,659.4L457.3,690.4L446.5,694.1L385.7,691.8L327.4,689.4M633.0,522.9L628.7,519.2L626.1,518.3L572.4,509.7L549.7,507.4L532.1,506.8L397.0,502.5L353.9,500.7L311.5,499.4L271.4,497.4M850.7,179.7L855.1,178.8L860.7,177.8L868.5,178.0L906.6,179.0L951.8,181.1L958.2,181.0L963.5,179.1L967.6,175.7L970.1,170.1L970.9,147.2M438.4,652.0L468.7,635.8M311.5,499.4L313.3,473.4M1033.0,149.4L1008.0,148.5L970.9,147.2L946.6,146.3M273.0,446.2L271.4,497.4L269.4,541.2M719.9,627.8L700.3,627.0L697.0,625.4M436.5,-189.7L436.3,-182.8L434.0,-114.9L432.6,-73.1L431.8,-48.9L433.9,-21.6L432.1,24.0M906.6,179.0L910.4,47.6M686.0,687.5L693.0,686.7L699.9,687.7L723.3,698.7L731.0,698.9L737.0,696.5L742.5,691.7L745.1,684.5L745.1,682.2L745.4,666.5L745.4,662.4L745.6,658.8L746.7,631.4L749.7,559.0M647.2,-149.1L660.6,-147.6L671.2,-144.8L680.3,-140.4L688.0,-135.7L723.3,-110.8L730.0,-103.7L734.5,-98.2L743.0,-85.6L750.4,-74.4L779.0,-34.9L791.7,-14.9L803.3,5.7L803.4,9.1L802.8,10.0L801.0,12.0M550.4,597.6L550.7,623.6L556.8,642.2L604.4,708.0L608.1,716.8L609.1,719.6L612.8,730.3L612.8,736.3M686.0,687.5L684.3,682.7L633.7,612.8L626.6,605.4L617.2,601.4L607.4,599.7M590.9,599.7L590.5,615.9L594.9,628.3L649.6,702.6L650.3,704.5L654.6,716.1L657.3,720.5M278.8,893.6L280.2,868.7L280.7,858.9L281.3,849.4L282.1,833.0L283.1,812.2L283.6,805.9L284.2,780.4L286.2,727.2L287.4,650.6L288.3,617.1L289.0,593.6L289.9,577.5L291.4,551.6L292.0,542.1M325.7,728.6L322.5,728.5L314.5,728.2L286.2,727.2M489.6,766.8L488.7,765.3L487.3,762.6L470.8,729.9L462.0,708.1L458.7,698.4L457.3,690.4L453.2,677.7L438.4,652.0L407.0,597.6L398.9,584.5L395.5,573.7L395.5,564.6L395.7,545.9M385.7,691.8L386.4,678.6L387.4,668.8L390.1,658.7M607.4,599.7L590.9,599.7L550.4,597.6L510.6,595.6L423.9,592.2L414.4,594.3L407.0,597.6L379.3,612.5L361.1,625.6L351.7,632.1L343.6,635.8L337.8,636.1L331.7,633.4M373.4,417.4L376.6,398.0L376.4,389.1L376.2,383.0L372.4,367.0L368.3,359.7L365.6,355.0L358.6,339.8L356.2,331.0L355.3,328.0L354.9,314.9L355.7,296.4L356.7,273.3L357.7,254.1L358.3,234.9L359.7,197.3L359.8,193.6M359.7,197.3L436.1,200.1L505.4,203.0L520.8,203.2M358.3,234.9L434.8,237.8L505.8,240.8L514.9,241.1M436.1,200.1L434.8,237.8M612.3,43.4L614.9,58.3L618.3,77.7M560.0,19.5L586.3,5.0L624.5,-15.3L627.6,-16.9M675.7,11.8L695.5,1.4L702.8,-2.0L708.9,-4.1L715.5,-5.2L722.5,-5.1L730.2,-4.0L737.9,-0.9L742.7,1.4L747.7,5.0L751.7,8.6L755.6,13.6L765.1,30.2M93.5,598.3L87.6,597.0L82.9,595.4L77.5,592.6L72.0,588.7L68.3,586.1L61.3,581.3L54.0,576.9L48.1,574.0L40.9,571.1L25.6,566.3L8.7,562.9L-2.9,562.0L-35.8,560.7L-44.1,561.9L-49.2,564.6L-56.2,570.1M62.7,642.8L41.7,624.6L37.1,620.7L30.5,615.8L23.0,611.9L14.9,608.6L6.6,606.5L0.4,605.5L-47.1,602.9M991.2,361.0L977.7,360.6L956.0,359.9L928.1,359.0L917.2,358.7L894.1,358.0M902.7,218.1L901.9,242.3L901.0,246.4L897.7,259.1L896.6,266.7L896.2,275.6L895.8,290.4L895.4,305.8L895.2,313.2L894.5,338.0L894.1,358.0L893.5,382.9L891.9,427.1L891.2,445.8L890.2,449.8L885.3,461.3L880.8,472.0L879.4,475.7L878.2,480.6L877.0,487.3L875.4,499.8M695.4,550.4L713.0,550.9L728.4,553.4L740.9,553.7L744.0,553.5L747.1,552.8L750.7,550.5L753.6,547.5L754.9,544.7L756.4,540.1L757.7,531.8L758.4,527.0L758.1,524.7L754.5,521.1M596.4,304.9L595.3,329.2L594.8,338.8L594.8,343.7L593.4,368.7L592.8,383.2L592.8,385.7L592.1,402.4L591.6,415.3L591.4,431.0L589.4,451.4M695.1,557.0L695.4,550.4M8.7,562.9L11.7,560.1L14.7,535.4L12.8,530.8M798.8,367.5L785.7,366.8L764.6,365.8L759.5,365.4L756.1,365.1L748.0,364.0L738.9,361.9L731.5,358.9L725.4,355.7L720.0,352.0L714.6,347.4L714.1,347.0L708.8,341.6L704.4,335.6L699.5,329.9L695.4,325.7L690.5,321.6L684.2,317.2L677.2,313.5L670.6,310.6L661.8,307.9L652.6,306.5L596.4,304.9L535.9,302.7L463.3,300.2L433.4,299.0L404.4,298.2L355.7,296.4M12.8,530.8L10.0,534.9L10.0,535.5L6.6,559.6L8.7,562.9M473.5,377.8L472.1,392.3L471.8,412.1L469.8,425.1L468.8,432.0M433.4,299.0L432.3,347.0L430.9,376.1M695.4,550.4L696.1,542.0L696.9,532.1L697.6,523.9L698.1,522.3L698.9,520.0L701.1,516.7L704.6,513.3M713.4,514.8L717.7,523.1L718.0,525.3L718.1,528.4L718.0,532.4L713.0,550.9M1211.4,343.9L1203.5,343.8L1179.6,343.4L1139.6,342.0L1130.2,341.8L1099.5,340.6L1093.4,340.1L1075.6,336.8L1055.7,329.7L1028.8,315.3L1020.5,308.7L1014.3,301.7L1010.0,292.9L1008.0,284.0L1008.1,261.1L1006.8,251.2L1001.9,238.8L993.3,229.7L981.3,223.0L966.9,220.0L902.7,218.1L890.2,217.8L881.8,217.0L872.2,214.1L863.1,207.9M1172.3,517.8L1170.1,519.6L1161.6,526.5L1152.4,530.9L1144.7,531.9L1136.7,532.0L1131.9,532.2L1088.9,529.1L1054.5,527.1L1042.3,525.5L1033.8,524.3L1003.8,519.6L994.7,518.2L972.1,514.5L923.3,507.1L875.4,499.8L794.4,487.2L718.5,473.1L697.7,469.6L658.9,463.1L589.4,451.4L468.8,432.0L373.4,417.4L344.0,413.1L307.4,408.0L300.3,406.9L274.6,403.0M959.8,567.9L959.3,589.3L959.2,595.3L958.0,632.4L958.0,638.2L958.0,642.8L959.9,652.9L960.6,657.2M1024.3,571.8L1015.7,569.3L997.9,568.5L959.8,567.9M633.0,522.9L636.3,531.0L634.9,554.0M832.4,745.4L846.1,746.0L911.0,748.7L940.9,749.9L972.1,751.2L1017.3,753.0L1063.6,754.9L1111.2,756.9L1155.4,758.7L1179.2,759.7L1192.8,760.2L1197.0,760.4M292.0,542.1L269.4,541.2L251.0,540.5L209.0,538.8L178.8,537.2L158.9,536.3L124.7,534.7L88.4,533.8L65.5,533.5L60.4,533.2L23.5,531.4L22.6,531.4L12.8,530.8M188.8,488.2L182.3,487.2L120.4,477.2L95.8,473.2L93.6,473.1L92.1,473.8M430.9,376.1L473.5,377.8L526.0,379.2M806.7,10.1L803.4,9.1M801.0,12.0L765.1,30.2L761.8,31.7L751.6,36.2L741.4,39.5L730.0,42.3L720.1,45.8L698.2,55.3L668.6,67.8L659.8,70.9L646.9,73.3L643.0,73.9L618.3,77.7M872.3,56.5L854.3,56.3M-49.2,646.4L-18.5,647.8L-9.4,648.8L-0.7,651.1L6.9,654.7L13.7,658.4L20.0,663.1L39.9,680.6M12.8,530.8L-36.1,527.4M511.3,157.1L512.4,111.0L513.6,90.9L517.3,74.6L524.0,57.6L533.2,42.9L545.3,30.3L560.0,19.5M618.3,77.7L584.2,84.0L573.7,85.3L558.1,91.8L538.4,102.8L527.8,107.3L512.4,111.0M569.7,72.5L573.7,85.3L575.8,91.5L576.9,99.1L577.5,109.9L575.4,118.8L570.0,129.8L556.1,151.2M514.9,241.1L519.9,241.2L595.4,243.0L607.2,243.3M520.8,203.2L590.3,206.0M520.8,203.2L519.9,241.2M356.7,273.3L474.2,277.5M92.1,473.8L91.1,474.9L90.4,476.6L90.0,486.8L88.4,533.8M654.8,95.3L660.3,104.2L666.6,110.9L682.1,119.9L707.9,130.5L727.1,138.6L742.6,144.7L770.6,148.9L779.2,151.4L792.0,158.3L819.0,174.0L834.6,182.9L841.9,187.8L852.1,197.5L863.1,207.9M850.7,179.7L845.9,183.3L841.9,187.8M819.0,174.0L825.5,162.0L829.1,153.2L829.9,146.1L830.4,106.2L830.5,86.8L826.8,77.5L821.9,70.2L833.7,62.6L846.3,56.7L854.3,56.3M821.9,70.2L811.5,75.9L796.5,91.7L788.2,105.4L780.0,122.9L774.7,133.8L770.6,148.9M770.6,148.9L770.2,154.4L768.7,160.1L764.1,165.7M707.9,130.5L704.3,140.2L699.7,152.1L695.8,156.6L690.9,160.2L684.0,163.1L674.1,164.5L659.6,163.9L626.5,163.0M659.6,163.9L660.2,139.6M959.8,567.9L927.7,566.4L836.9,562.1L803.3,560.9L765.7,559.6L749.7,559.0L695.1,557.0L654.3,554.8L634.9,554.0L530.1,549.6L395.7,545.9L360.6,544.5L307.9,542.7L292.0,542.1M512.4,111.0L507.2,111.6L494.3,111.5M474.2,277.5L500.2,278.6L543.9,279.7L575.3,280.5L594.2,281.2M595.4,243.0L594.2,281.2L596.4,304.9M652.3,207.5L590.3,206.0M594.2,281.2L662.3,283.8L733.2,286.2L822.7,289.8L825.5,289.0L827.0,287.5L827.2,284.0L828.2,251.0M65.7,372.7L70.7,343.2L74.8,332.9L94.9,308.2L102.2,291.9L107.2,171.3L111.9,171.4L132.9,172.1M88.4,533.8L88.1,537.0L87.2,547.3L86.0,555.3L85.3,558.6L84.7,561.1L82.3,568.2L79.8,574.2L76.4,580.5L72.0,588.7L66.5,596.2L61.2,603.2L52.7,612.6L41.7,624.6L18.5,652.2L13.7,658.4L7.1,668.0L0.3,678.0L-6.0,688.7L-11.9,698.2L-16.7,707.5L-17.3,708.6M312.5,198.7L321.5,196.9L337.2,196.6L359.7,197.3M734.4,247.7L828.2,251.0L829.3,213.6L831.7,204.3L834.2,198.4L841.9,187.8M829.3,213.6L735.9,210.5M733.2,286.2L734.4,247.7M607.2,243.3L651.4,244.8M651.4,244.8L652.3,207.5M734.4,247.7L735.9,210.5M651.4,244.8L734.4,247.7M735.9,210.5L652.3,207.5M794.4,487.2L795.4,461.9L795.9,449.9L796.7,432.1L797.4,405.4L798.7,372.0L798.8,367.5L799.5,350.7L800.0,336.5"/>
<path class="map-road-major" d="M824.3,1041.7L825.1,995.3L825.8,974.2L825.6,968.5L827.3,929.6L828.4,903.7L829.1,875.3L830.5,823.7L832.4,745.4M832.4,745.4L832.4,729.4L829.8,718.5L825.6,708.6M763.7,731.4L825.6,708.6L950.2,662.0L960.6,657.2L980.0,652.2L1000.6,650.0L1015.8,650.7L1040.5,652.2M-422.0,950.7L-402.6,949.6L101.9,920.2L118.9,918.9L133.7,917.9L183.5,911.5L278.8,893.6L328.5,881.5L433.2,851.6L518.4,821.6L763.7,731.4"/>
<path class="map-highway" d="M-791.9,260.2L-780.3,260.9L-634.5,283.5L984.0,533.3M1192.7,560.8L1054.0,539.4L-561.9,289.4M984.0,533.3L1036.8,541.1"/>
<g class="map-marker" transform="translate(500.0 375.0)"><path d="M0 0C-4-10-17-18-17-30A17 17 0 1 1 17-30C17-18 4-10 0 0Z"/><circle cx="0" cy="-30" r="6"/></g>
</svg>
